REM DIRINDEX 1\2\3,1\2\4,1\2\5,1\2\6
REM DIRNAME cjc157,folder01,folder02,folder03,folder04,folder05
TITLE ""
FILE "007 007.mp3" MP3
  TRACK 01 AUDIO
    TITLE "0:"
    INDEX 01 00:00:00
  TRACK 02 AUDIO
    TITLE "3:cjc157_0200"
    INDEX 01 00:00:13
  TRACK 03 AUDIO
    TITLE "0:"
    INDEX 01 00:01:54
  TRACK 04 AUDIO
    TITLE "4:cjc157_0201"
    INDEX 01 00:02:30
  TRACK 05 AUDIO
    TITLE "0:"
    INDEX 01 00:03:43
  TRACK 06 AUDIO
    TITLE "5:cjc157_0202"
    INDEX 01 00:04:13
  TRACK 07 AUDIO
    TITLE "0:"
    INDEX 01 00:05:67
  TRACK 08 AUDIO
    TITLE "3:cjc157_0203"
    INDEX 01 00:06:37
  TRACK 09 AUDIO
    TITLE "0:"
    INDEX 01 00:07:47
  TRACK 10 AUDIO
    TITLE "4:cjc157_0204"
    INDEX 01 00:08:21
  TRACK 11 AUDIO
    TITLE "0:"
    INDEX 01 00:09:36
  TRACK 12 AUDIO
    TITLE "5:cjc157_0205"
    INDEX 01 00:10:02
  TRACK 13 AUDIO
    TITLE "0:"
    INDEX 01 00:12:34
  TRACK 14 AUDIO
    TITLE "3:cjc157_0206"
    INDEX 01 00:13:02
  TRACK 15 AUDIO
    TITLE "0:"
    INDEX 01 00:14:15
  TRACK 16 AUDIO
    TITLE "4:cjc157_0207"
    INDEX 01 00:14:60
  TRACK 17 AUDIO
    TITLE "0:"
    INDEX 01 00:15:70
  TRACK 18 AUDIO
    TITLE "5:cjc157_0208"
    INDEX 01 00:16:44
  TRACK 19 AUDIO
    TITLE "0:"
    INDEX 01 00:18:29
  TRACK 20 AUDIO
    TITLE "3:cjc157_0209"
    INDEX 01 00:19:01
  TRACK 21 AUDIO
    TITLE "0:"
    INDEX 01 00:20:45
  TRACK 22 AUDIO
    TITLE "4:cjc157_0210"
    INDEX 01 00:21:15
  TRACK 23 AUDIO
    TITLE "0:"
    INDEX 01 00:22:15
  TRACK 24 AUDIO
    TITLE "5:cjc157_0211"
    INDEX 01 00:22:60
  TRACK 25 AUDIO
    TITLE "0:"
    INDEX 01 00:24:47
  TRACK 26 AUDIO
    TITLE "5:cjc157_0212"
    INDEX 01 00:25:13
  TRACK 27 AUDIO
    TITLE "0:"
    INDEX 01 00:27:16
  TRACK 28 AUDIO
    TITLE "3:cjc157_0213"
    INDEX 01 00:27:61
  TRACK 29 AUDIO
    TITLE "0:"
    INDEX 01 00:29:07
  TRACK 30 AUDIO
    TITLE "4:cjc157_0214"
    INDEX 01 00:29:48
  TRACK 31 AUDIO
    TITLE "0:"
    INDEX 01 00:30:61
  TRACK 32 AUDIO
    TITLE "5:cjc157_0215"
    INDEX 01 00:31:35
  TRACK 33 AUDIO
    TITLE "0:"
    INDEX 01 00:34:12
  TRACK 34 AUDIO
    TITLE "3:cjc157_0216"
    INDEX 01 00:34:61
  TRACK 35 AUDIO
    TITLE "0:"
    INDEX 01 00:35:74
  TRACK 36 AUDIO
    TITLE "4:cjc157_0217"
    INDEX 01 00:36:46
  TRACK 37 AUDIO
    TITLE "0:"
    INDEX 01 00:37:56
  TRACK 38 AUDIO
    TITLE "5:cjc157_0218"
    INDEX 01 00:38:26
  TRACK 39 AUDIO
    TITLE "0:"
    INDEX 01 00:40:46
  TRACK 40 AUDIO
    TITLE "5:cjc157_0219"
    INDEX 01 00:41:18
  TRACK 41 AUDIO
    TITLE "0:"
    INDEX 01 00:42:51
  TRACK 42 AUDIO
    TITLE "3:cjc157_0220"
    INDEX 01 00:43:23
  TRACK 43 AUDIO
    TITLE "0:"
    INDEX 01 00:44:61
  TRACK 44 AUDIO
    TITLE "4:cjc157_0221"
    INDEX 01 00:45:35
  TRACK 45 AUDIO
    TITLE "0:"
    INDEX 01 00:46:51
  TRACK 46 AUDIO
    TITLE "5:cjc157_0222"
    INDEX 01 00:47:27
  TRACK 47 AUDIO
    TITLE "0:"
    INDEX 01 00:49:23
  TRACK 48 AUDIO
    TITLE "5:cjc157_0223"
    INDEX 01 00:49:65
  TRACK 49 AUDIO
    TITLE "0:"
    INDEX 01 00:51:60
  TRACK 50 AUDIO
    TITLE "3:cjc157_0224"
    INDEX 01 00:52:34
  TRACK 51 AUDIO
    TITLE "0:"
    INDEX 01 00:54:11
  TRACK 52 AUDIO
    TITLE "4:cjc157_0225"
    INDEX 01 00:54:64
  TRACK 53 AUDIO
    TITLE "0:"
    INDEX 01 00:56:00
  TRACK 54 AUDIO
    TITLE "5:cjc157_0226"
    INDEX 01 00:56:41
  TRACK 55 AUDIO
    TITLE "0:"
    INDEX 01 00:58:73
  TRACK 56 AUDIO
    TITLE "5:cjc157_0227"
    INDEX 01 00:59:45
  TRACK 57 AUDIO
    TITLE "0:"
    INDEX 01 01:02:03
  TRACK 58 AUDIO
    TITLE "3:cjc157_0228"
    INDEX 01 01:02:54
  TRACK 59 AUDIO
    TITLE "0:"
    INDEX 01 01:04:37
  TRACK 60 AUDIO
    TITLE "4:cjc157_0229"
    INDEX 01 01:05:11
  TRACK 61 AUDIO
    TITLE "0:"
    INDEX 01 01:06:28
  TRACK 62 AUDIO
    TITLE "5:cjc157_0230"
    INDEX 01 01:07:00
  TRACK 63 AUDIO
    TITLE "0:"
    INDEX 01 01:09:67
  TRACK 64 AUDIO
    TITLE "3:cjc157_0231"
    INDEX 01 01:10:39
  TRACK 65 AUDIO
    TITLE "0:"
    INDEX 01 01:12:26
  TRACK 66 AUDIO
    TITLE "4:cjc157_0232"
    INDEX 01 01:12:73
  TRACK 67 AUDIO
    TITLE "0:"
    INDEX 01 01:14:10
  TRACK 68 AUDIO
    TITLE "5:cjc157_0233"
    INDEX 01 01:14:53
  TRACK 69 AUDIO
    TITLE "0:"
    INDEX 01 01:17:10
  TRACK 70 AUDIO
    TITLE "5:cjc157_0234"
    INDEX 01 01:17:53
  TRACK 71 AUDIO
    TITLE "0:"
    INDEX 01 01:19:15
  TRACK 72 AUDIO
    TITLE "5:cjc157_0235"
    INDEX 01 01:19:56
  TRACK 73 AUDIO
    TITLE "0:"
    INDEX 01 01:21:33
